<svg width="50" height="50" viewBox="0 0 50 50" fill="none" xmlns="http://www.w3.org/2000/svg">
<g id="Group 3">
<rect id="Rectangle" width="50" height="50" rx="15" fill="#21427D"/>
<g id="Combined Shape 3">
<path id="Combined Shape" fill-rule="evenodd" clip-rule="evenodd" d="M34.0812 24.878C34.1031 24.6073 34.1143 24.3335 34.1143 24.0571C34.1143 23.5131 34.0711 22.9792 33.9879 22.4586C35.237 23.89 35.9953 25.7611 36 27.8099C36.0049 29.9792 35.147 32.0615 33.6154 33.5978C32.0838 35.1341 30.0041 35.9984 27.8348 36C25.777 36.0016 23.8963 35.2424 22.4586 33.9879C22.9792 34.0711 23.5131 34.1143 24.0571 34.1143C24.3332 34.1143 24.6067 34.1032 24.8772 34.0813C26.6141 34.9008 28.6522 34.9765 30.4904 34.2098C33.074 33.1321 34.7529 30.603 34.7428 27.8036C34.7381 26.7571 34.5013 25.7657 34.0812 24.878ZM34.0812 24.878C32.974 22.5381 30.5934 20.9192 27.8348 20.9143C25.0355 20.9118 22.5109 22.5975 21.4402 25.184C20.3695 27.7705 20.9641 30.7474 22.9462 32.7241C23.5181 33.2944 24.1728 33.749 24.8772 34.0813C29.7773 33.6859 33.6854 29.778 34.0812 24.878ZM22.4586 33.9879C17.6639 33.2222 14 29.0675 14 24.0571C14 18.5027 18.5027 14 24.0571 14C29.0675 14 33.2222 17.6639 33.9879 22.4586C32.4867 20.7382 30.2766 19.6528 27.814 19.6572C23.3027 19.6652 19.6514 23.3276 19.6571 27.8389C19.6603 30.2925 20.7445 32.4922 22.4586 33.9879Z" fill="#3EE9E5"/>
</g>
</g>
</svg>
